<svg xmlns="http://www.w3.org/2000/svg" xmlns:xlink="http://www.w3.org/1999/xlink" width="417" zoomAndPan="magnify" viewBox="0 0 312.75 116.999995" height="156" preserveAspectRatio="xMidYMid meet" version="1.0"><defs><filter x="0%" y="0%" width="100%" height="100%" id="a2fa8688d1"><feColorMatrix values="0 0 0 0 1 0 0 0 0 1 0 0 0 0 1 0 0 0 1 0" color-interpolation-filters="sRGB"/></filter><g/><clipPath id="d3269aef9e"><path d="M 0 0.046875 L 312.5 0.046875 L 312.5 116.953125 L 0 116.953125 Z M 0 0.046875 " clip-rule="nonzero"/></clipPath><clipPath id="4e7d90a33d"><path d="M 0 20.992188 L 74.53125 20.992188 L 74.53125 95.523438 L 0 95.523438 Z M 0 20.992188 " clip-rule="nonzero"/></clipPath><clipPath id="b256046814"><path d="M 18.226562 50.246094 L 60.667969 50.246094 L 60.667969 82 L 18.226562 82 Z M 18.226562 50.246094 " clip-rule="nonzero"/></clipPath><clipPath id="f537c4012b"><path d="M 21.554688 81.984375 L 39.175781 81.984375 C 39.890625 81.988281 40.59375 81.902344 41.285156 81.726562 C 41.980469 81.550781 42.640625 81.289062 43.265625 80.945312 C 43.890625 80.597656 44.464844 80.179688 44.984375 79.691406 C 45.503906 79.199219 45.953125 78.652344 46.332031 78.042969 L 60.464844 55.152344 C 61.796875 52.996094 60.199219 50.253906 57.617188 50.253906 L 39.878906 50.253906 C 39.183594 50.25 38.496094 50.335938 37.820312 50.507812 C 37.144531 50.679688 36.503906 50.933594 35.890625 51.269531 C 35.28125 51.605469 34.722656 52.015625 34.214844 52.492188 C 33.710938 52.972656 33.269531 53.507812 32.902344 54.097656 L 18.707031 77.09375 C 17.378906 79.242188 18.972656 81.984375 21.554688 81.984375 Z M 21.554688 81.984375 " clip-rule="nonzero"/></clipPath><linearGradient x1="38.132791" gradientTransform="matrix(0.124261, 0, 0, 0.124261, 18.22812, 50.254916)" y1="-31.971699" x2="304.715346" gradientUnits="userSpaceOnUse" y2="286.233781" id="e9b7746de8"><stop stop-opacity="1" stop-color="rgb(13.299561%, 77.2995%, 36.898804%)" offset="0"/><stop stop-opacity="1" stop-color="rgb(13.258362%, 77.180481%, 36.828613%)" offset="0.25"/><stop stop-opacity="1" stop-color="rgb(13.150024%, 76.872253%, 36.647034%)" offset="0.265625"/><stop stop-opacity="1" stop-color="rgb(13.015747%, 76.493835%, 36.424255%)" offset="0.28125"/><stop stop-opacity="1" stop-color="rgb(12.882996%, 76.113892%, 36.199951%)" offset="0.296875"/><stop stop-opacity="1" stop-color="rgb(12.750244%, 75.733948%, 35.975647%)" offset="0.3125"/><stop stop-opacity="1" stop-color="rgb(12.615967%, 75.354004%, 35.752869%)" offset="0.328125"/><stop stop-opacity="1" stop-color="rgb(12.483215%, 74.97406%, 35.528564%)" offset="0.34375"/><stop stop-opacity="1" stop-color="rgb(12.350464%, 74.595642%, 35.30426%)" offset="0.359375"/><stop stop-opacity="1" stop-color="rgb(12.217712%, 74.215698%, 35.081482%)" offset="0.375"/><stop stop-opacity="1" stop-color="rgb(12.083435%, 73.835754%, 34.857178%)" offset="0.390625"/><stop stop-opacity="1" stop-color="rgb(11.950684%, 73.455811%, 34.632874%)" offset="0.40625"/><stop stop-opacity="1" stop-color="rgb(11.817932%, 73.075867%, 34.410095%)" offset="0.421875"/><stop stop-opacity="1" stop-color="rgb(11.685181%, 72.697449%, 34.185791%)" offset="0.4375"/><stop stop-opacity="1" stop-color="rgb(11.550903%, 72.317505%, 33.961487%)" offset="0.453125"/><stop stop-opacity="1" stop-color="rgb(11.418152%, 71.937561%, 33.738708%)" offset="0.46875"/><stop stop-opacity="1" stop-color="rgb(11.2854%, 71.557617%, 33.514404%)" offset="0.471623"/><stop stop-opacity="1" stop-color="rgb(11.219788%, 71.368408%, 33.403015%)" offset="0.484375"/><stop stop-opacity="1" stop-color="rgb(11.152649%, 71.177673%, 33.2901%)" offset="0.5"/><stop stop-opacity="1" stop-color="rgb(11.018372%, 70.799255%, 33.067322%)" offset="0.515625"/><stop stop-opacity="1" stop-color="rgb(10.88562%, 70.419312%, 32.843018%)" offset="0.528377"/><stop stop-opacity="1" stop-color="rgb(10.820007%, 70.230103%, 32.731628%)" offset="0.53125"/><stop stop-opacity="1" stop-color="rgb(10.752869%, 70.039368%, 32.618713%)" offset="0.546875"/><stop stop-opacity="1" stop-color="rgb(10.618591%, 69.659424%, 32.394409%)" offset="0.5625"/><stop stop-opacity="1" stop-color="rgb(10.48584%, 69.27948%, 32.171631%)" offset="0.578125"/><stop stop-opacity="1" stop-color="rgb(10.353088%, 68.899536%, 31.947327%)" offset="0.59375"/><stop stop-opacity="1" stop-color="rgb(10.220337%, 68.521118%, 31.723022%)" offset="0.609375"/><stop stop-opacity="1" stop-color="rgb(10.08606%, 68.141174%, 31.500244%)" offset="0.625"/><stop stop-opacity="1" stop-color="rgb(9.953308%, 67.76123%, 31.27594%)" offset="0.640625"/><stop stop-opacity="1" stop-color="rgb(9.820557%, 67.381287%, 31.051636%)" offset="0.65625"/><stop stop-opacity="1" stop-color="rgb(9.687805%, 67.001343%, 30.828857%)" offset="0.671875"/><stop stop-opacity="1" stop-color="rgb(9.553528%, 66.622925%, 30.604553%)" offset="0.6875"/><stop stop-opacity="1" stop-color="rgb(9.420776%, 66.242981%, 30.380249%)" offset="0.703125"/><stop stop-opacity="1" stop-color="rgb(9.288025%, 65.863037%, 30.157471%)" offset="0.71875"/><stop stop-opacity="1" stop-color="rgb(9.155273%, 65.483093%, 29.933167%)" offset="0.734375"/><stop stop-opacity="1" stop-color="rgb(9.020996%, 65.103149%, 29.708862%)" offset="0.75"/><stop stop-opacity="1" stop-color="rgb(8.888245%, 64.724731%, 29.486084%)" offset="0.765625"/><stop stop-opacity="1" stop-color="rgb(8.755493%, 64.344788%, 29.26178%)" offset="0.78125"/><stop stop-opacity="1" stop-color="rgb(8.644104%, 64.027405%, 29.074097%)" offset="0.8125"/><stop stop-opacity="1" stop-color="rgb(8.599854%, 63.899231%, 28.999329%)" offset="0.875"/><stop stop-opacity="1" stop-color="rgb(8.599854%, 63.899231%, 28.999329%)" offset="1"/></linearGradient><mask id="07509d0d04"><g filter="url(#a2fa8688d1)"><rect x="-31.275" width="375.3" fill="#000000" y="-11.7" height="140.399994" fill-opacity="0.85"/></g></mask><clipPath id="6ad7e031c0"><path d="M 0.433594 0.363281 L 42.875 0.363281 L 42.875 32.234375 L 0.433594 32.234375 Z M 0.433594 0.363281 " clip-rule="nonzero"/></clipPath><clipPath id="696bbb6dd5"><path d="M 3.761719 32.101562 L 21.382812 32.101562 C 22.097656 32.105469 22.800781 32.019531 23.492188 31.84375 C 24.1875 31.667969 24.84375 31.40625 25.472656 31.0625 C 26.097656 30.714844 26.671875 30.296875 27.191406 29.808594 C 27.710938 29.316406 28.160156 28.769531 28.539062 28.160156 L 42.671875 5.269531 C 44.003906 3.113281 42.40625 0.371094 39.824219 0.371094 L 22.085938 0.371094 C 21.390625 0.367188 20.703125 0.453125 20.027344 0.625 C 19.351562 0.796875 18.710938 1.050781 18.097656 1.386719 C 17.488281 1.722656 16.929688 2.132812 16.421875 2.609375 C 15.914062 3.089844 15.476562 3.625 15.109375 4.214844 L 0.914062 27.210938 C -0.414062 29.359375 1.179688 32.101562 3.761719 32.101562 Z M 3.761719 32.101562 " clip-rule="nonzero"/></clipPath><linearGradient x1="0" gradientTransform="matrix(0.124261, 0, 0, 0.124261, 0.434784, 0.372157)" y1="127.68" x2="341.547214" gradientUnits="userSpaceOnUse" y2="127.68" id="3930d68000"><stop stop-opacity="1" stop-color="rgb(13.299561%, 77.2995%, 36.898804%)" offset="0"/><stop stop-opacity="1" stop-color="rgb(13.421631%, 77.375793%, 37.002563%)" offset="0.015625"/><stop stop-opacity="1" stop-color="rgb(13.664246%, 77.526855%, 37.208557%)" offset="0.03125"/><stop stop-opacity="1" stop-color="rgb(13.908386%, 77.679443%, 37.414551%)" offset="0.046875"/><stop stop-opacity="1" stop-color="rgb(14.152527%, 77.832031%, 37.62207%)" offset="0.0625"/><stop stop-opacity="1" stop-color="rgb(14.395142%, 77.983093%, 37.828064%)" offset="0.078125"/><stop stop-opacity="1" stop-color="rgb(14.639282%, 78.135681%, 38.034058%)" offset="0.09375"/><stop stop-opacity="1" stop-color="rgb(14.883423%, 78.288269%, 38.240051%)" offset="0.109375"/><stop stop-opacity="1" stop-color="rgb(15.127563%, 78.439331%, 38.447571%)" offset="0.125"/><stop stop-opacity="1" stop-color="rgb(15.370178%, 78.591919%, 38.653564%)" offset="0.140625"/><stop stop-opacity="1" stop-color="rgb(15.614319%, 78.744507%, 38.859558%)" offset="0.15625"/><stop stop-opacity="1" stop-color="rgb(15.858459%, 78.897095%, 39.067078%)" offset="0.171875"/><stop stop-opacity="1" stop-color="rgb(16.1026%, 79.048157%, 39.273071%)" offset="0.1875"/><stop stop-opacity="1" stop-color="rgb(16.345215%, 79.200745%, 39.479065%)" offset="0.203125"/><stop stop-opacity="1" stop-color="rgb(16.589355%, 79.353333%, 39.686584%)" offset="0.21875"/><stop stop-opacity="1" stop-color="rgb(16.833496%, 79.504395%, 39.892578%)" offset="0.234375"/><stop stop-opacity="1" stop-color="rgb(17.077637%, 79.656982%, 40.098572%)" offset="0.25"/><stop stop-opacity="1" stop-color="rgb(17.320251%, 79.80957%, 40.306091%)" offset="0.265625"/><stop stop-opacity="1" stop-color="rgb(17.564392%, 79.962158%, 40.512085%)" offset="0.28125"/><stop stop-opacity="1" stop-color="rgb(17.808533%, 80.11322%, 40.718079%)" offset="0.296875"/><stop stop-opacity="1" stop-color="rgb(18.051147%, 80.265808%, 40.925598%)" offset="0.3125"/><stop stop-opacity="1" stop-color="rgb(18.295288%, 80.418396%, 41.131592%)" offset="0.328125"/><stop stop-opacity="1" stop-color="rgb(18.539429%, 80.569458%, 41.337585%)" offset="0.34375"/><stop stop-opacity="1" stop-color="rgb(18.783569%, 80.722046%, 41.545105%)" offset="0.359375"/><stop stop-opacity="1" stop-color="rgb(19.026184%, 80.874634%, 41.751099%)" offset="0.375"/><stop stop-opacity="1" stop-color="rgb(19.270325%, 81.025696%, 41.957092%)" offset="0.390625"/><stop stop-opacity="1" stop-color="rgb(19.514465%, 81.178284%, 42.163086%)" offset="0.40625"/><stop stop-opacity="1" stop-color="rgb(19.758606%, 81.330872%, 42.370605%)" offset="0.421875"/><stop stop-opacity="1" stop-color="rgb(20.001221%, 81.483459%, 42.576599%)" offset="0.4375"/><stop stop-opacity="1" stop-color="rgb(20.245361%, 81.634521%, 42.782593%)" offset="0.453125"/><stop stop-opacity="1" stop-color="rgb(20.489502%, 81.787109%, 42.990112%)" offset="0.46875"/><stop stop-opacity="1" stop-color="rgb(20.733643%, 81.939697%, 43.196106%)" offset="0.484375"/><stop stop-opacity="1" stop-color="rgb(20.976257%, 82.090759%, 43.4021%)" offset="0.5"/><stop stop-opacity="1" stop-color="rgb(21.220398%, 82.243347%, 43.609619%)" offset="0.515625"/><stop stop-opacity="1" stop-color="rgb(21.464539%, 82.395935%, 43.815613%)" offset="0.53125"/><stop stop-opacity="1" stop-color="rgb(21.707153%, 82.548523%, 44.021606%)" offset="0.546875"/><stop stop-opacity="1" stop-color="rgb(21.951294%, 82.699585%, 44.229126%)" offset="0.5625"/><stop stop-opacity="1" stop-color="rgb(22.195435%, 82.852173%, 44.43512%)" offset="0.578125"/><stop stop-opacity="1" stop-color="rgb(22.439575%, 83.004761%, 44.641113%)" offset="0.59375"/><stop stop-opacity="1" stop-color="rgb(22.68219%, 83.155823%, 44.848633%)" offset="0.609375"/><stop stop-opacity="1" stop-color="rgb(22.926331%, 83.308411%, 45.054626%)" offset="0.625"/><stop stop-opacity="1" stop-color="rgb(23.170471%, 83.460999%, 45.26062%)" offset="0.640625"/><stop stop-opacity="1" stop-color="rgb(23.414612%, 83.612061%, 45.46814%)" offset="0.65625"/><stop stop-opacity="1" stop-color="rgb(23.657227%, 83.764648%, 45.674133%)" offset="0.671875"/><stop stop-opacity="1" stop-color="rgb(23.901367%, 83.917236%, 45.880127%)" offset="0.6875"/><stop stop-opacity="1" stop-color="rgb(24.145508%, 84.069824%, 46.086121%)" offset="0.703125"/><stop stop-opacity="1" stop-color="rgb(24.389648%, 84.220886%, 46.29364%)" offset="0.71875"/><stop stop-opacity="1" stop-color="rgb(24.632263%, 84.373474%, 46.499634%)" offset="0.734375"/><stop stop-opacity="1" stop-color="rgb(24.876404%, 84.526062%, 46.705627%)" offset="0.75"/><stop stop-opacity="1" stop-color="rgb(25.120544%, 84.677124%, 46.913147%)" offset="0.765625"/><stop stop-opacity="1" stop-color="rgb(25.363159%, 84.829712%, 47.119141%)" offset="0.78125"/><stop stop-opacity="1" stop-color="rgb(25.6073%, 84.9823%, 47.325134%)" offset="0.796875"/><stop stop-opacity="1" stop-color="rgb(25.85144%, 85.134888%, 47.532654%)" offset="0.8125"/><stop stop-opacity="1" stop-color="rgb(26.095581%, 85.28595%, 47.738647%)" offset="0.828125"/><stop stop-opacity="1" stop-color="rgb(26.338196%, 85.438538%, 47.944641%)" offset="0.84375"/><stop stop-opacity="1" stop-color="rgb(26.582336%, 85.591125%, 48.152161%)" offset="0.859375"/><stop stop-opacity="1" stop-color="rgb(26.826477%, 85.742188%, 48.358154%)" offset="0.875"/><stop stop-opacity="1" stop-color="rgb(27.070618%, 85.894775%, 48.564148%)" offset="0.890625"/><stop stop-opacity="1" stop-color="rgb(27.313232%, 86.047363%, 48.771667%)" offset="0.90625"/><stop stop-opacity="1" stop-color="rgb(27.557373%, 86.198425%, 48.977661%)" offset="0.921875"/><stop stop-opacity="1" stop-color="rgb(27.801514%, 86.351013%, 49.183655%)" offset="0.9375"/><stop stop-opacity="1" stop-color="rgb(28.045654%, 86.503601%, 49.391174%)" offset="0.953125"/><stop stop-opacity="1" stop-color="rgb(28.288269%, 86.656189%, 49.597168%)" offset="0.96875"/><stop stop-opacity="1" stop-color="rgb(28.53241%, 86.807251%, 49.803162%)" offset="0.984375"/><stop stop-opacity="1" stop-color="rgb(28.77655%, 86.959839%, 50.009155%)" offset="1"/></linearGradient><clipPath id="16a16b6774"><rect x="0" width="44" y="0" height="33"/></clipPath></defs><g clip-path="url(#d3269aef9e)"><path fill="#ffffff" d="M 0 0.046875 L 312.5 0.046875 L 312.5 116.953125 L 0 116.953125 Z M 0 0.046875 " fill-opacity="1" fill-rule="nonzero"/></g><g fill="#09090b" fill-opacity="1"><g transform="translate(74.976106, 76.9214)"><g><path d="M 19.59375 0.625 C 16.644531 0.625 13.945312 -0.0976562 11.5 -1.546875 C 9.050781 -2.992188 7.101562 -4.941406 5.65625 -7.390625 C 4.207031 -9.847656 3.484375 -12.546875 3.484375 -15.484375 C 3.484375 -18.484375 4.207031 -21.195312 5.65625 -23.625 C 7.101562 -26.050781 9.050781 -27.984375 11.5 -29.421875 C 13.945312 -30.867188 16.644531 -31.59375 19.59375 -31.59375 C 23.207031 -31.59375 26.40625 -30.546875 29.1875 -28.453125 C 31.976562 -26.367188 33.890625 -23.695312 34.921875 -20.4375 L 29.8125 -20.4375 C 28.882812 -22.351562 27.515625 -23.890625 25.703125 -25.046875 C 23.898438 -26.210938 21.863281 -26.796875 19.59375 -26.796875 C 17.53125 -26.796875 15.632812 -26.289062 13.90625 -25.28125 C 12.175781 -24.28125 10.804688 -22.925781 9.796875 -21.21875 C 8.785156 -19.507812 8.28125 -17.597656 8.28125 -15.484375 C 8.28125 -13.367188 8.785156 -11.457031 9.796875 -9.75 C 10.804688 -8.050781 12.175781 -6.695312 13.90625 -5.6875 C 15.632812 -4.6875 17.53125 -4.1875 19.59375 -4.1875 C 21.863281 -4.1875 23.898438 -4.765625 25.703125 -5.921875 C 27.515625 -7.085938 28.882812 -8.625 29.8125 -10.53125 L 34.921875 -10.53125 C 33.890625 -7.28125 31.976562 -4.609375 29.1875 -2.515625 C 26.40625 -0.421875 23.207031 0.625 19.59375 0.625 Z M 19.59375 0.625 "/></g></g></g><g fill="#09090b" fill-opacity="1"><g transform="translate(111.909441, 76.9214)"><g><path d="M 38.875 -4.03125 L 40.8125 -4.03125 L 40.8125 0 C 40.144531 0.414062 39.367188 0.625 38.484375 0.625 C 36.679688 0.625 35.171875 0.132812 33.953125 -0.84375 C 32.742188 -1.832031 31.878906 -3.125 31.359375 -4.71875 C 29.921875 -3.125 28.179688 -1.832031 26.140625 -0.84375 C 24.097656 0.132812 21.914062 0.625 19.59375 0.625 C 16.644531 0.625 13.945312 -0.0976562 11.5 -1.546875 C 9.050781 -2.992188 7.101562 -4.941406 5.65625 -7.390625 C 4.207031 -9.847656 3.484375 -12.546875 3.484375 -15.484375 C 3.484375 -18.484375 4.207031 -21.195312 5.65625 -23.625 C 7.101562 -26.050781 9.050781 -27.984375 11.5 -29.421875 C 13.945312 -30.867188 16.644531 -31.59375 19.59375 -31.59375 C 21.8125 -31.59375 23.890625 -31.179688 25.828125 -30.359375 C 27.765625 -29.535156 29.457031 -28.398438 30.90625 -26.953125 L 30.90625 -30.984375 L 35.703125 -30.984375 L 35.703125 -8.046875 C 35.703125 -6.609375 36.023438 -5.578125 36.671875 -4.953125 C 37.316406 -4.335938 38.050781 -4.03125 38.875 -4.03125 Z M 19.59375 -4.1875 C 21.65625 -4.1875 23.535156 -4.6875 25.234375 -5.6875 C 26.941406 -6.695312 28.3125 -8.066406 29.34375 -9.796875 C 30.382812 -11.523438 30.90625 -13.421875 30.90625 -15.484375 C 30.90625 -17.597656 30.382812 -19.507812 29.34375 -21.21875 C 28.3125 -22.925781 26.941406 -24.28125 25.234375 -25.28125 C 23.535156 -26.289062 21.65625 -26.796875 19.59375 -26.796875 C 17.53125 -26.796875 15.632812 -26.289062 13.90625 -25.28125 C 12.175781 -24.28125 10.804688 -22.925781 9.796875 -21.21875 C 8.785156 -19.507812 8.28125 -17.597656 8.28125 -15.484375 C 8.28125 -13.421875 8.785156 -11.523438 9.796875 -9.796875 C 10.804688 -8.066406 12.175781 -6.695312 13.90625 -5.6875 C 15.632812 -4.6875 17.53125 -4.1875 19.59375 -4.1875 Z M 19.59375 -4.1875 "/></g></g></g><g fill="#09090b" fill-opacity="1"><g transform="translate(153.643329, 76.9214)"><g><path d="M 13.3125 0.625 C 10.84375 0.625 8.570312 -0.03125 6.5 -1.34375 C 4.4375 -2.664062 3.125 -4.257812 2.5625 -6.125 L 7.203125 -7.96875 C 7.460938 -6.832031 8.1875 -5.90625 9.375 -5.1875 C 10.5625 -4.46875 11.875 -4.109375 13.3125 -4.109375 C 14.707031 -4.109375 15.910156 -4.476562 16.921875 -5.21875 C 17.929688 -5.96875 18.4375 -7.015625 18.4375 -8.359375 C 18.4375 -9.597656 17.941406 -10.550781 16.953125 -11.21875 C 15.972656 -11.894531 14.554688 -12.59375 12.703125 -13.3125 C 9.960938 -14.351562 7.816406 -15.582031 6.265625 -17 C 4.722656 -18.414062 3.953125 -20.335938 3.953125 -22.765625 C 3.953125 -24.679688 4.375 -26.28125 5.21875 -27.5625 C 6.070312 -28.851562 7.195312 -29.847656 8.59375 -30.546875 C 9.988281 -31.242188 11.4375 -31.59375 12.9375 -31.59375 C 14.894531 -31.59375 16.75 -31.085938 18.5 -30.078125 C 20.257812 -29.078125 21.425781 -27.878906 22 -26.484375 L 17.8125 -24.3125 C 17.394531 -25.144531 16.773438 -25.765625 15.953125 -26.171875 C 15.128906 -26.585938 14.203125 -26.796875 13.171875 -26.796875 C 11.878906 -26.796875 10.832031 -26.484375 10.03125 -25.859375 C 9.226562 -25.242188 8.828125 -24.265625 8.828125 -22.921875 C 8.828125 -21.578125 9.300781 -20.582031 10.25 -19.9375 C 11.207031 -19.289062 12.644531 -18.554688 14.5625 -17.734375 C 15.90625 -17.210938 17.242188 -16.578125 18.578125 -15.828125 C 19.921875 -15.085938 21.03125 -14.125 21.90625 -12.9375 C 22.789062 -11.75 23.234375 -10.222656 23.234375 -8.359375 C 23.234375 -5.679688 22.265625 -3.515625 20.328125 -1.859375 C 18.390625 -0.203125 16.050781 0.625 13.3125 0.625 Z M 13.3125 0.625 "/></g></g></g><g fill="#22c55e" fill-opacity="1"><g transform="translate(179.283348, 76.9214)"><g><path d="M 20.0625 -31.59375 C 22.226562 -31.59375 24.175781 -31.0625 25.90625 -30 C 27.632812 -28.945312 29.015625 -27.53125 30.046875 -25.75 C 31.078125 -23.96875 31.59375 -21.941406 31.59375 -19.671875 L 31.59375 0 L 24.234375 0 L 24.234375 -18.96875 C 24.234375 -20.625 23.675781 -22.003906 22.5625 -23.109375 C 21.457031 -24.222656 20.082031 -24.78125 18.4375 -24.78125 C 16.78125 -24.78125 15.367188 -24.171875 14.203125 -22.953125 C 13.046875 -21.742188 12.46875 -20.3125 12.46875 -18.65625 L 12.46875 0 L 5.109375 0 L 5.109375 -55.140625 L 12.46875 -55.140625 L 12.46875 -28.734375 C 13.5 -29.609375 14.660156 -30.300781 15.953125 -30.8125 C 17.242188 -31.332031 18.613281 -31.59375 20.0625 -31.59375 Z M 20.0625 -31.59375 "/></g></g></g><g fill="#22c55e" fill-opacity="1"><g transform="translate(215.4424, 76.9214)"><g><path d="M 17.265625 0.625 C 13.191406 0.625 10.003906 -0.457031 7.703125 -2.625 C 5.410156 -4.800781 4.265625 -7.75 4.265625 -11.46875 L 4.265625 -30.984375 L 11.53125 -30.984375 L 11.53125 -12.390625 C 11.53125 -10.484375 12.070312 -8.972656 13.15625 -7.859375 C 14.25 -6.753906 15.617188 -6.203125 17.265625 -6.203125 C 18.921875 -6.203125 20.289062 -6.753906 21.375 -7.859375 C 22.457031 -8.972656 23 -10.484375 23 -12.390625 L 23 -30.984375 L 30.28125 -30.984375 L 30.28125 -11.46875 C 30.28125 -7.75 29.128906 -4.800781 26.828125 -2.625 C 24.535156 -0.457031 21.347656 0.625 17.265625 0.625 Z M 17.265625 0.625 "/></g></g></g><g fill="#22c55e" fill-opacity="1"><g transform="translate(249.975459, 76.9214)"><g><path d="M 22.453125 -31.59375 C 25.398438 -31.59375 28.0625 -30.867188 30.4375 -29.421875 C 32.8125 -27.984375 34.691406 -26.050781 36.078125 -23.625 C 37.472656 -21.195312 38.171875 -18.484375 38.171875 -15.484375 C 38.171875 -12.492188 37.472656 -9.785156 36.078125 -7.359375 C 34.691406 -4.929688 32.8125 -2.992188 30.4375 -1.546875 C 28.0625 -0.0976562 25.398438 0.625 22.453125 0.625 C 20.492188 0.625 18.675781 0.273438 17 -0.421875 C 15.320312 -1.117188 13.8125 -2.0625 12.46875 -3.25 L 12.46875 0 L 5.109375 0 L 5.109375 -55.140625 L 12.46875 -55.140625 L 12.46875 -27.71875 C 13.8125 -28.90625 15.320312 -29.847656 17 -30.546875 C 18.675781 -31.242188 20.492188 -31.59375 22.453125 -31.59375 Z M 21.53125 -6.203125 C 23.28125 -6.203125 24.851562 -6.613281 26.25 -7.4375 C 27.644531 -8.257812 28.753906 -9.378906 29.578125 -10.796875 C 30.410156 -12.222656 30.828125 -13.785156 30.828125 -15.484375 C 30.828125 -17.242188 30.410156 -18.816406 29.578125 -20.203125 C 28.753906 -21.597656 27.644531 -22.707031 26.25 -23.53125 C 24.851562 -24.363281 23.28125 -24.78125 21.53125 -24.78125 C 19.820312 -24.78125 18.257812 -24.363281 16.84375 -23.53125 C 15.425781 -22.707031 14.300781 -21.597656 13.46875 -20.203125 C 12.644531 -18.816406 12.234375 -17.242188 12.234375 -15.484375 C 12.234375 -13.785156 12.644531 -12.222656 13.46875 -10.796875 C 14.300781 -9.378906 15.425781 -8.257812 16.84375 -7.4375 C 18.257812 -6.613281 19.820312 -6.203125 21.53125 -6.203125 Z M 21.53125 -6.203125 "/></g></g></g><g clip-path="url(#4e7d90a33d)"><path fill="#09090b" d="M 15.394531 20.992188 L 58.992188 20.992188 C 60 20.992188 61.003906 21.089844 61.992188 21.285156 C 62.984375 21.484375 63.949219 21.777344 64.882812 22.164062 C 65.816406 22.550781 66.703125 23.023438 67.542969 23.585938 C 68.382812 24.148438 69.160156 24.785156 69.875 25.5 C 70.589844 26.214844 71.230469 26.992188 71.789062 27.832031 C 72.351562 28.671875 72.828125 29.558594 73.214844 30.496094 C 73.601562 31.429688 73.890625 32.390625 74.089844 33.382812 C 74.285156 34.375 74.386719 35.375 74.386719 36.386719 L 74.386719 79.980469 C 74.386719 80.992188 74.285156 81.992188 74.089844 82.984375 C 73.890625 83.976562 73.601562 84.9375 73.214844 85.871094 C 72.828125 86.804688 72.351562 87.695312 71.789062 88.535156 C 71.230469 89.375 70.589844 90.152344 69.875 90.867188 C 69.160156 91.582031 68.382812 92.21875 67.542969 92.78125 C 66.703125 93.34375 65.816406 93.816406 64.882812 94.203125 C 63.949219 94.589844 62.984375 94.882812 61.992188 95.082031 C 61.003906 95.277344 60 95.375 58.992188 95.375 L 15.394531 95.375 C 14.382812 95.375 13.382812 95.277344 12.390625 95.082031 C 11.398438 94.882812 10.4375 94.589844 9.503906 94.203125 C 8.570312 93.816406 7.683594 93.34375 6.84375 92.78125 C 6 92.21875 5.222656 91.582031 4.507812 90.867188 C 3.792969 90.152344 3.15625 89.375 2.59375 88.535156 C 2.03125 87.695312 1.558594 86.804688 1.171875 85.871094 C 0.785156 84.9375 0.492188 83.976562 0.296875 82.984375 C 0.0976562 81.992188 0 80.992188 0 79.980469 L 0 36.386719 C 0 35.375 0.0976562 34.375 0.296875 33.382812 C 0.492188 32.390625 0.785156 31.429688 1.171875 30.496094 C 1.558594 29.558594 2.03125 28.671875 2.59375 27.832031 C 3.15625 26.992188 3.792969 26.214844 4.507812 25.5 C 5.222656 24.785156 6 24.148438 6.84375 23.585938 C 7.683594 23.023438 8.570312 22.550781 9.503906 22.164062 C 10.4375 21.777344 11.398438 21.484375 12.390625 21.285156 C 13.382812 21.089844 14.382812 20.992188 15.394531 20.992188 Z M 15.394531 20.992188 " fill-opacity="1" fill-rule="nonzero"/></g><g clip-path="url(#b256046814)"><g clip-path="url(#f537c4012b)"><path fill="url(#e9b7746de8)" d="M 18.226562 50.25 L 18.226562 81.988281 L 60.667969 81.988281 L 60.667969 50.25 Z M 18.226562 50.25 " fill-rule="nonzero"/></g></g><g mask="url(#07509d0d04)"><g transform="matrix(1, 0, 0, 1, 13, 34)"><g clip-path="url(#16a16b6774)"><g clip-path="url(#6ad7e031c0)"><g clip-path="url(#696bbb6dd5)"><path fill="url(#3930d68000)" d="M 0.433594 0.367188 L 0.433594 32.105469 L 42.875 32.105469 L 42.875 0.367188 Z M 0.433594 0.367188 " fill-rule="nonzero"/></g></g></g></g></g></svg>